# xmcd
#
# Track frame offsets:
#	150
#	9193
#	17371
#	27973
#	35203
#	43230
#	56289
#	64131
#	70747
#	79303
#	87920
#	107858
#	119260
#	131692
#	142111
#	152449
#	161137
#	170340
#	178316
#	193050
#	200738
#	208717
#	219393
#	231759
#	238970
#
# Disc length: 3307 seconds
#
# Revision: 1
# Processed by: cddbd v1.5.1PL0 Copyright (c) Steve Scherf et al.
# Submitted via: audiograbber 1.83.01
#
DISCID=6b0ce919
DTITLE=Various Artist - Bluegrass Hymns
DYEAR=2005
DGENRE=Bluegrass
TTITLE0=The Marksmen - Who Will Sing For Me
TTITLE1=Lilie Mae and The Dixie Gospel-Aires - I´m Going To Make Heaven My Home
TTITLE2=Hylo Brown - Take My Hand Precious Lord
TTITLE3=Mac Martin and The Dixie Travelers - I´ll Be A Friend
TTITLE4=Earl Taylor and Jim Mccall With The Stoney Mountain Boys - Where You Gonn
TTITLE4=a Hide
TTITLE5=The Marksmen - In The Garden
TTITLE6=Hylo Brown and The Timberliners - I Am A Pilgrim
TTITLE7=J.D.Jarvis - I´ll Meet You In A Church On Sunday Morning
TTITLE8=Red Smiley and The Bluegrass Cut-Ups - The Man Of Galilee
TTITLE9=Mac Martin and The Dixie Travelers - If You See My Savior
TTITLE10=The Marksmen - Precious Memories
TTITLE11=Hylo Brown and The Timberliners - Picture On The Wall
TTITLE12=Jim Eanes and Bobby Atkins - Jesus Loves Me
TTITLE13=Lilie Mae and The Dixie Gospel-Aires - I Like To Hear Them Preach It
TTITLE14=Blue Ridge Mountaineers - O Come, Angel Band
TTITLE15=Red Smiley and The Bluegrass Cut-Ups - Working On A Building
TTITLE16=Hylo Brown and The Bluegrass Cut-Ups - Lonely Tombs
TTITLE17=J.D.Jarvis - Prayer Bells To Heaven
TTITLE18=Red White and The Country Gospel Singers - Rank Strangers
TTITLE19=Lilie Mae and The Dixie Gospel-Aires - His Light Is Shining Down On Me
TTITLE20=Hylo Brown and The Timberliners - Sweeter Than The Flowers
TTITLE21=Rusty York - I´am Using The Bible As My Road-Map
TTITLE22=Red Smiley and The Bluegrass Cut-Ups - Garden In The Sky
TTITLE23=J.D.Jarvis - Somebody Touched Me
TTITLE24=Hylo Brown and The Timberliners - Just A Closer Walk With Thee
EXTD=
EXTT0=
EXTT1=
EXTT2=
EXTT3=
EXTT4=
EXTT5=
EXTT6=
EXTT7=
EXTT8=
EXTT9=
EXTT10=
EXTT11=
EXTT12=
EXTT13=
EXTT14=
EXTT15=
EXTT16=
EXTT17=
EXTT18=
EXTT19=
EXTT20=
EXTT21=
EXTT22=
EXTT23=
EXTT24=
PLAYORDER=
